<svg xmlns="http://www.w3.org/2000/svg" xmlns:xlink="http://www.w3.org/1999/xlink" version="1.1" id="Layer_1" x="0px" y="0px" width="100%" viewBox="0 0 784 624" enable-background="new 0 0 784 624" xml:space="preserve">
<path fill="#ffffff" opacity="1.000000" stroke="none" d=" M504.415466,292.305023   C495.275543,323.002716 478.836426,348.253510 451.527466,364.801208   C420.489075,383.608704 388.269745,384.109009 356.743561,365.827362   C329.038208,349.761353 312.266052,324.800964 302.784943,294.654114   C294.082306,266.982635 292.826782,238.762299 300.280304,210.878189   C310.857269,171.308990 332.491302,139.718628 372.301392,124.654068   C405.214386,112.199463 435.775360,119.257698 462.744720,140.952454   C489.885223,162.784851 503.917999,192.218414 509.114990,226.196136   C512.515686,248.429901 510.781555,270.340363 504.415466,292.305023  M325.761444,164.239975   C306.102203,189.011536 296.391937,233.093414 300.338470,245.992065   C302.875977,243.435516 303.499847,239.299225 307.717804,238.282074   C326.363831,233.785568 344.415710,227.485916 361.865265,219.547531   C365.712036,217.797501 369.008087,214.457611 369.244415,210.160599   C369.573242,204.181076 372.306580,201.411819 377.895721,200.537766   C380.210693,200.175751 382.836182,199.410095 382.645844,196.373215   C382.176147,188.879684 386.233826,184.944641 392.499573,181.871719   C398.011749,179.168381 398.893127,175.393372 396.498932,169.794189   C395.254761,166.884537 393.980103,163.990173 393.770142,160.762482   C393.478729,156.283295 394.563324,152.415039 398.831421,150.204895   C402.133667,148.494904 405.668518,148.172318 408.773834,150.486679   C412.638885,153.367218 412.817291,157.594635 411.820038,161.830322   C411.059967,165.058655 409.691223,168.139267 408.829651,171.349045   C407.138489,177.649780 408.964111,181.354935 415.045349,183.397797   C419.802673,184.995895 422.406616,188.148911 422.183960,192.991608   C421.953186,198.011337 424.396515,200.083908 428.805359,201.391678   C434.543488,203.093735 438.930511,206.446198 439.849335,212.948761   C440.063782,214.466721 440.613861,215.800568 442.052490,216.671814   C449.720856,221.315842 456.718048,227.164139 465.397095,229.996826   C472.674774,232.372162 479.964874,234.749283 487.357178,236.721970   C494.287598,238.571396 500.044006,241.622879 503.112701,248.516449   C503.753143,249.955246 504.270386,251.730011 506.538635,251.837296   C508.782135,248.327301 506.910309,244.661011 506.724701,241.163055   C504.705841,203.114944 491.422485,170.049515 462.149567,144.740662   C439.938446,125.537323 413.989990,118.118805 385.001465,124.174141   C360.222595,129.350128 341.348145,143.878906 325.761444,164.239975  M431.465851,254.829147   C430.168823,258.096436 430.979095,262.173523 427.813477,264.847137   C424.105286,263.325958 423.047546,259.141571 419.477295,257.339752   C412.751129,264.361053 409.603882,272.217468 412.634552,281.930328   C413.422546,284.455780 413.930450,287.088867 414.341125,289.707947   C415.538239,297.342346 416.621063,304.994659 417.897369,313.647858   C421.272705,309.050385 422.315277,304.557312 423.757660,300.243134   C429.837494,282.058472 432.848236,263.114929 437.489044,244.574310   C438.056183,242.308456 438.515289,239.785568 435.593903,237.037033   C434.182526,243.214203 432.946472,248.624008 431.465851,254.829147  M378.655457,261.149170   C376.382233,263.572571 375.328369,266.138092 375.979736,269.716431   C376.839203,274.438416 376.743805,279.325226 377.302429,284.112762   C378.630432,295.494019 379.457214,307.014008 384.977936,317.424652   C385.834473,319.039795 386.075867,321.434357 389.064270,321.309692   C390.793152,318.335297 390.619446,314.993439 390.720612,311.720856   C391.095764,299.590454 389.382843,287.302277 391.916168,275.364716   C393.767670,266.639832 387.167999,262.009369 385.166656,255.170074   C381.822205,256.370575 381.096283,259.132355 378.655457,261.149170  M413.797180,247.531830   C418.630615,250.398117 421.973785,255.057556 426.469452,258.984863   C428.244324,255.803467 429.522217,253.480270 427.706390,250.504242   C425.362762,246.663223 421.773010,247.568130 417.927155,248.133118   C418.959534,244.486984 419.836182,241.754272 424.124634,242.030762   C426.120209,242.159409 428.042450,240.939804 429.110931,239.117584   C433.738098,231.226212 435.886749,222.643280 435.889374,213.521317   C435.890533,209.426819 433.280029,207.229782 429.871063,205.755142   C428.778656,205.282593 427.509979,205.088821 426.663208,206.200516   C425.852539,207.264801 426.410217,208.372452 426.839386,209.494095   C428.104950,212.801956 431.236328,212.387970 433.947906,212.843033   C434.071411,216.547714 431.975616,219.014740 430.266846,221.605042   C425.755676,228.443283 418.990448,232.838089 412.669342,237.716934   C410.498566,239.392395 407.900360,240.782104 407.374420,244.014389   C409.072876,245.749725 411.275604,246.177795 413.797180,247.531830  M387.607117,232.862961   C381.642120,225.343521 376.657349,217.271591 373.980408,207.131210   C371.495270,210.598251 372.401428,213.656570 372.293915,216.463531   C371.922607,226.158081 371.107727,236.170303 383.353760,239.990768   C383.786926,240.125900 384.219482,240.540680 384.467133,240.939987   C385.171722,242.075836 385.210571,243.610657 383.823608,243.781357   C378.651520,244.417938 378.605682,249.780914 375.567139,252.359253   C374.036224,253.658310 373.668396,255.763412 375.433899,257.137421   C377.228546,258.534119 378.485504,256.862122 379.496460,255.554947   C382.268127,251.971024 385.393860,248.846634 389.479004,246.719467   C391.439453,245.698639 394.169586,245.974045 395.468811,243.180771   C393.009430,239.979813 390.503754,236.718613 387.607117,232.862961  M417.551605,203.749802   C417.124237,202.154221 416.803436,200.520203 416.244995,198.971878   C415.362640,196.525330 413.301910,195.473236 411.097382,196.503326   C408.507782,197.713379 403.706299,195.607239 403.461548,200.179642   C403.082275,207.264832 402.959167,214.411957 403.785339,221.511322   C404.105957,224.266434 405.786499,225.264923 408.294525,224.743332   C414.359680,223.481964 419.436218,220.400696 425.036804,215.718903   C420.354065,215.694519 419.167236,213.926834 419.589691,210.605530   C419.866730,208.427338 418.762024,206.427536 417.551605,203.749802  M395.166595,193.380234   C403.088837,194.811752 410.733490,195.030975 417.687347,188.763443   C416.402618,187.892242 415.913147,187.447968 415.340027,187.188309   C404.528412,182.290085 402.981476,178.725769 406.821136,167.291824   C407.881195,164.135178 409.077911,161.043106 408.788025,157.595886   C408.577179,155.088364 407.767426,152.908707 405.331757,151.999405   C403.098511,151.165649 401.189575,152.106842 399.778351,153.942337   C403.012604,161.419586 399.051208,169.038910 400.659760,176.525070   C401.105103,178.597641 399.141815,180.762543 397.377167,182.445923   C396.250793,183.520401 394.465240,184.118149 394.194977,185.963516   C395.420715,187.405518 398.381836,187.168213 397.858215,190.216858   C394.436584,192.023270 391.333069,189.040115 387.815155,189.238586   C389.030792,192.657501 391.856262,192.658646 395.166595,193.380234  M400.039429,210.505722   C400.022095,208.848663 400.013977,207.191452 399.985901,205.534576   C399.838501,196.830811 399.243744,196.267029 389.828430,196.263443   C388.726471,204.161987 388.822205,212.541656 383.542999,219.665390   C386.125763,223.599472 390.630798,224.609970 395.245636,225.462128   C398.150879,225.998596 399.732880,224.994125 399.796661,221.927155   C399.868988,218.449020 399.966583,214.971436 400.039429,210.505722  M403.359894,231.982574   C403.608154,234.451508 402.283722,237.364594 405.828949,239.425049   C411.733032,233.978729 419.066315,230.001984 423.769745,222.726227   C417.292419,225.663223 410.338318,226.767838 404.110809,229.894501   C403.765320,230.067963 403.678284,230.756134 403.359894,231.982574  M399.258911,230.517227   C396.395325,228.030945 393.252258,227.757217 389.397552,229.132706   C390.406982,230.892944 391.067505,232.422714 392.060822,233.692062   C393.728851,235.823654 395.075897,239.543381 398.272766,238.385208   C401.293640,237.290787 399.558960,233.774872 399.258911,230.517227  z"/>
<path fill="#ffffff" opacity="1.000000" stroke="none" d=" M402.468018,430.252258   C402.165253,424.915131 404.407623,419.062805 396.821716,416.280548   C402.450012,414.051666 407.636322,414.607727 412.685150,414.910583   C415.813171,415.098206 415.730225,418.538635 416.679688,420.673828   C418.978302,425.843140 420.987976,431.141571 423.083160,436.400269   C423.755829,438.088562 424.181152,439.910828 426.239044,441.104523   C428.330597,439.907806 428.875610,437.604797 429.709595,435.536957   C432.014069,429.822968 434.363098,424.124237 436.512787,418.351807   C437.463074,415.799988 438.982025,414.453857 441.709106,414.722717   C445.853729,415.131348 450.202240,413.685486 454.947144,415.906982   C445.252777,423.615540 450.166870,433.739136 449.400421,442.705078   C448.722778,450.631989 449.302307,450.681519 455.100739,454.987000   C452.527191,458.039948 437.997162,458.255798 433.834076,454.868042   C441.506317,452.807922 439.719299,446.786163 439.787445,441.517426   C439.831696,438.094543 439.795776,434.670593 439.795776,430.985596   C436.837158,431.707825 436.704803,433.789307 436.059814,435.329956   C433.424530,441.625031 430.932770,447.980103 428.380341,454.309967   C427.617462,456.201935 426.823669,458.069885 424.297363,458.056335   C421.808105,458.042969 420.942657,456.235077 420.162048,454.335876   C417.569336,448.028290 415.009064,441.707184 412.375519,435.416687   C411.625519,433.625244 411.312042,431.548706 409.512451,430.301392   C405.896027,437.134949 408.204071,450.642761 413.709625,455.127533   C411.110840,457.713501 401.223206,458.059265 396.919617,455.714081   C396.950500,455.392059 396.901428,454.829163 397.032349,454.783600   C402.271942,452.960907 402.968262,448.971680 402.594879,444.095703   C402.253143,439.632507 402.510284,435.123444 402.468018,430.252258  z"/>
<path fill="#ffffff" opacity="1.000000" stroke="none" d=" M517.723999,430.094788   C517.786560,424.508484 518.677551,419.096924 511.942169,416.734375   C518.379272,412.647491 527.843994,414.302917 531.402527,419.481689   C535.265015,425.102783 539.131592,430.721039 543.009644,436.331390   C544.028687,437.805603 544.884644,439.459198 546.685242,440.239197   C550.252136,432.971558 548.709534,421.669983 542.829163,415.595245   C548.846069,414.250854 554.185364,414.238617 560.201965,416.135956   C552.422424,419.085144 554.245178,425.320160 554.169189,430.771973   C554.069580,437.924988 554.189270,445.080872 554.126160,452.234711   C554.106384,454.476776 554.645325,457.220978 551.447632,457.894867   C548.548889,458.505707 545.922119,458.223114 543.991211,455.364685   C539.150635,448.199127 534.153137,441.139587 529.208923,434.044250   C527.989624,432.294373 527.007507,430.319031 524.665894,429.178864   C522.862061,431.071411 523.389526,433.466797 523.328003,435.664246   C523.244324,438.656464 523.504883,441.667236 523.280090,444.644531   C522.942261,449.118866 523.721313,452.891907 528.537231,454.619293   C525.683655,457.821838 516.379700,458.219696 511.608459,455.215637   C520.844543,451.219086 516.909790,443.197754 517.687561,436.563904   C517.918518,434.594299 517.723633,432.574707 517.723999,430.094788  z"/>
<path fill="#ffffff" opacity="1.000000" stroke="none" d=" M371.905090,450.096588   C368.788391,446.932983 367.192688,442.813751 363.150940,440.611938   C361.012329,443.631866 362.132172,446.832947 362.053497,449.843170   C361.938171,454.255737 366.773102,453.046326 368.919220,455.082306   C365.435699,457.670929 351.778503,457.956635 346.625214,455.461823   C354.199432,452.340363 351.649384,445.991211 351.927765,440.570679   C352.132507,436.582703 352.001495,432.574707 351.942810,428.576721   C351.876526,424.063812 353.127258,419.070251 347.352478,416.739349   C347.952637,415.916779 348.207764,415.221405 348.513489,415.198395   C356.961243,414.562561 365.435303,413.868530 373.815247,415.676880   C378.359161,416.657440 381.777802,419.279510 382.778992,424.047150   C383.764526,428.739899 381.820648,432.489807 378.285522,435.526184   C377.163025,436.490326 376.084015,437.505096 374.645203,438.803406   C379.515106,444.947510 383.465179,451.660370 391.205139,454.868896   C385.479218,459.640594 377.636597,457.582245 371.905090,450.096588  M369.392395,419.927002   C363.189941,418.513306 362.387421,419.083282 361.685608,425.127258   C361.471161,426.974091 361.608429,428.753113 361.893341,430.578918   C362.291016,433.127228 363.750366,433.990234 366.101501,433.556793   C368.794312,433.060394 371.498840,432.214600 372.361328,429.299347   C373.342377,425.983124 373.327759,422.664673 369.392395,419.927002  z"/>
<path fill="#ffffff" opacity="1.000000" stroke="none" d=" M323.879700,456.189880   C315.315369,459.583435 307.394501,458.808472 300.246887,453.812714   C291.131104,447.441345 288.417847,437.288025 292.778992,427.906097   C297.440948,417.877045 308.323273,412.657318 319.356323,415.158264   C328.752777,417.288208 335.941742,424.331512 337.175140,432.615997   C338.741486,443.137207 334.835663,450.215057 323.879700,456.189880  M323.436127,447.856384   C327.781006,441.902557 327.401855,435.387665 325.500031,428.801453   C323.954315,423.448395 319.360626,420.165131 313.998779,420.216156   C308.891296,420.264771 304.805328,423.495697 303.007263,428.753876   C301.789764,432.314270 302.067627,435.960938 302.150940,439.600891   C302.274384,444.993408 304.295380,449.276245 309.470154,451.578857   C314.744598,453.925812 319.144806,452.365601 323.436127,447.856384  z"/>
<path fill="#ffffff" opacity="1.000000" stroke="none" d=" M482.992310,433.560913   C485.793427,433.410553 487.321564,432.126495 488.182343,429.867035   C488.608948,428.747284 489.319275,427.768890 490.788757,428.091705   C491.951904,428.347260 492.465057,429.313843 492.479187,430.303345   C492.528778,433.780273 492.472321,437.261169 492.347015,440.736633   C492.308990,441.791809 491.635681,442.650818 490.511200,442.823029   C489.345795,443.001556 488.569763,442.243988 488.212128,441.275360   C487.042297,438.107025 484.774475,436.500061 481.625946,437.718628   C478.361298,438.982117 479.322998,442.216797 479.622620,444.735382   C479.992584,447.844910 479.195892,452.136169 483.951996,452.532013   C490.994812,453.118195 495.540649,453.148834 497.713379,447.563690   C498.361725,445.897095 498.783417,443.491577 501.167603,444.111328   C504.018555,444.852356 502.632233,447.343140 502.434540,449.180298   C501.579346,457.127258 501.559448,457.159241 493.574249,457.197083   C485.579590,457.234985 477.584534,457.212250 469.589844,457.175751   C467.826874,457.167694 465.888885,457.487366 464.348938,455.009094   C471.686340,452.450653 469.671875,446.308502 469.813599,440.947571   C469.906006,437.451782 469.873413,433.951447 469.836609,430.453796   C469.782166,425.278992 471.204773,419.646454 465.256165,416.685150   C466.520599,414.144073 468.394348,414.725983 469.945831,414.714661   C478.273895,414.653870 486.603058,414.643066 494.931030,414.711151   C499.445709,414.748077 502.116608,419.300781 499.915314,423.391052   C498.441345,426.129791 496.869019,424.730835 496.028015,422.824463   C494.323364,418.960236 491.182404,418.089905 487.440765,418.240875   C484.548615,418.357544 480.899078,417.404572 480.068909,421.502472   C479.208344,425.750397 477.907043,430.364716 482.992310,433.560913  z"/>
<path fill="#ffffff" opacity="1.000000" stroke="none" d=" M266.992249,414.697266   C269.822021,414.699707 272.154114,414.694427 274.486176,414.704529   C281.512939,414.734985 284.120667,419.825653 280.601501,426.639038   C279.157104,426.867920 278.559601,425.924377 277.979431,424.838654   C275.244141,419.719879 270.590515,417.827545 265.168518,419.487854   C263.135162,420.110535 262.109711,421.338104 262.117401,423.468201   C262.125244,425.633240 261.997009,427.802582 262.097168,429.962250   C262.176453,431.672821 261.506378,433.939117 264.106537,434.421844   C266.638153,434.891815 268.620117,433.861053 270.039886,431.665619   C270.993073,430.191681 270.550812,427.891846 272.706299,427.135406   C275.699219,430.168884 276.030457,440.098236 273.260895,444.381622   C270.779114,444.366516 270.937195,441.902130 269.836853,440.619049   C268.291656,438.817322 266.342560,437.988647 264.057007,438.480621   C261.534637,439.023590 262.100952,441.246979 262.043427,442.978333   C261.777832,450.978455 261.802704,450.979279 268.742218,455.052582   C266.196259,457.697754 251.937027,458.118073 246.816727,455.298035   C253.732269,452.624084 252.001038,446.904968 252.089813,441.836823   C252.171478,437.174255 252.070450,432.508728 252.097351,427.844788   C252.121964,423.575195 252.850586,419.093384 247.846100,415.978821   C254.196579,414.121521 260.394592,414.945526 266.992249,414.697266  z"/>
<path fill="#ffffff" opacity="1.000000" stroke="none" d=" M450.809296,500.923248   C447.995819,494.919586 447.427826,489.081177 449.448273,483.141235   C451.071869,478.367950 454.236908,475.197906 459.500061,474.747620   C464.756927,474.297882 468.657593,476.577301 471.030670,481.675049   C473.196747,486.328094 473.719696,491.180878 472.216492,496.214508   C468.904663,507.304504 459.097626,509.661469 450.809296,500.923248  M467.983246,486.619385   C467.704285,485.836060 467.412689,485.056976 467.148590,484.268677   C466.015808,480.887817 463.804779,478.954346 460.107605,479.118896   C456.284790,479.289062 454.587463,481.913452 453.686951,485.126587   C452.634705,488.881226 452.674377,492.736084 453.826599,496.459961   C454.772308,499.516327 456.660675,501.705566 460.218353,501.840942   C463.716156,501.973999 465.887848,500.163757 467.097870,497.112152   C468.334900,493.992401 469.210022,490.777832 467.983246,486.619385  z"/>
<path fill="#ffffff" opacity="1.000000" stroke="none" d=" M306.519562,485.344574   C308.315216,487.986023 310.994751,487.991394 313.347595,488.586700   C315.940033,489.242645 318.543488,489.837860 320.732544,491.420288   C323.960449,493.753601 325.148132,496.871246 323.306549,500.562225   C321.111267,504.961975 317.082092,506.350616 312.488434,506.243408   C307.709564,506.131927 303.489594,504.831635 301.088959,500.145630   C303.390259,497.756439 304.927307,499.229736 306.596008,500.319763   C309.771790,502.394318 313.179230,502.400177 316.600494,501.038422   C318.258026,500.378693 319.320068,499.034302 319.328888,497.207947   C319.337189,495.487610 318.063477,494.449432 316.629211,493.963593   C313.805054,493.007050 310.861877,492.402740 308.034821,491.453491   C304.233246,490.177063 300.753387,488.130402 300.817719,483.620728   C300.886963,478.769348 304.389008,476.259338 308.693726,475.189362   C313.801697,473.919708 318.634979,474.636200 322.455383,478.698761   C323.330322,479.629150 324.404327,480.808533 323.051117,482.139679   C321.868652,483.302948 320.559326,482.942780 319.514893,481.898224   C317.082764,479.465851 314.173187,478.551941 310.854950,479.189545   C307.743378,479.787445 305.558105,481.283051 306.519562,485.344574  z"/>
<path fill="#ffffff" opacity="1.000000" stroke="none" d=" M277.976929,486.704010   C280.106964,486.968811 282.755768,486.087128 282.873108,488.608826   C283.009552,491.540375 280.175903,490.790009 278.344055,491.033752   C275.367584,491.429779 271.304626,489.584381 271.137939,495.201324   C270.960388,501.186707 271.240540,501.657898 277.366364,501.700836   C279.525421,501.715942 281.686890,501.731873 283.841888,501.847076   C284.904175,501.903839 285.771698,502.443604 285.848541,503.644073   C285.926971,504.869415 285.065063,505.533600 284.046844,505.650818   C278.921112,506.240814 273.771759,506.201202 268.644836,505.731628   C266.792145,505.561920 266.462494,503.949341 266.474976,502.337189   C266.537994,494.212982 266.604797,486.088806 266.654999,477.964539   C266.667297,475.976624 267.547058,474.788544 269.605804,474.770447   C274.092072,474.731018 278.578979,474.726501 283.065308,474.756683   C284.245544,474.764618 285.597839,474.943390 285.803925,476.362885   C286.056610,478.103271 284.648560,478.665558 283.283722,478.779144   C280.970917,478.971497 278.640045,478.949249 276.316589,479.010895   C273.746643,479.079071 271.281708,478.997314 271.235901,482.783844   C271.192230,486.398285 273.201202,486.900513 276.030029,486.703308   C276.526093,486.668671 277.026825,486.701263 277.976929,486.704010  z"/>
<path fill="#ffffff" opacity="1.000000" stroke="none" d=" M434.693787,486.335571   C432.612152,492.100555 427.645081,495.489014 425.026886,500.533813   C427.461029,502.405029 430.073212,501.377045 432.461670,501.753326   C433.643768,501.939575 434.888733,502.075500 434.973633,503.611511   C435.055145,505.085846 433.945526,505.785950 432.753876,505.801788   C427.604645,505.870148 422.417908,506.137634 417.315430,505.627014   C413.971619,505.292328 414.492157,502.926697 416.378784,501.008728   C419.411957,497.925110 422.594238,494.988098 425.625916,491.903046   C427.253082,490.247192 428.942261,488.526886 429.569427,486.216522   C430.277802,483.607208 429.938263,481.174561 427.181091,479.834259   C424.519196,478.540192 422.144196,479.267609 420.688019,481.688232   C419.272797,484.040710 418.102814,486.098022 415.014954,484.068024   C416.376251,477.252625 420.579407,473.935791 426.694702,474.792572   C431.961823,475.530518 435.120850,479.869720 434.693787,486.335571  z"/>
<path fill="#ffffff" opacity="1.000000" stroke="none" d=" M506.212341,484.806366   C504.749023,491.526215 499.534180,495.385834 495.888153,500.619232   C498.361420,502.259308 500.899078,501.470001 503.256805,501.708618   C504.736115,501.858368 506.539062,501.694855 506.513885,503.850098   C506.493378,505.602631 504.910492,505.865143 503.596710,505.900787   C498.936096,506.027191 494.271912,506.064758 489.609344,506.051147   C488.239746,506.047150 486.912842,505.604736 486.438904,504.106781   C485.957367,502.584839 486.992981,501.545135 487.940979,500.643738   C490.713074,498.007904 493.646851,495.538330 496.355835,492.841431   C497.878082,491.326080 499.208374,489.574524 500.399414,487.779633   C502.331299,484.868317 502.294800,482.014984 499.106506,480.012726   C496.146698,478.153961 493.666870,479.302155 491.804413,481.944244   C490.677521,483.542816 489.761475,486.145538 487.392365,484.209869   C485.430115,482.606628 487.091492,480.355377 488.160706,478.850281   C490.724365,475.241547 494.524017,473.926514 498.733124,474.995544   C503.418121,476.185455 505.954437,479.501984 506.212341,484.806366  z"/>
<path fill="#ffffff" opacity="1.000000" stroke="none" d=" M532.019043,487.196777   C535.076660,485.446869 536.505432,483.266754 533.946533,480.647797   C531.513733,478.157806 528.863831,478.693848 526.670898,481.372314   C525.545898,482.746368 524.340759,485.056854 522.399841,483.423462   C520.518616,481.840302 522.008789,479.712646 523.240601,478.123077   C526.036560,474.515289 531.383240,473.633423 535.416565,476.016479   C539.612610,478.495728 541.145386,482.602783 538.890442,487.000885   C537.725098,489.273773 538.525330,490.556549 539.538147,492.365356   C542.294983,497.288818 540.679016,502.542084 535.865112,505.073547   C530.804626,507.734711 524.321106,505.997314 522.031128,501.296783   C521.397522,499.996155 520.382446,498.358490 522.009094,497.244904   C523.720520,496.073212 525.173584,497.037354 526.106140,498.692719   C526.857666,500.026886 527.643250,501.316040 529.282532,501.633453   C532.177734,502.194092 534.724609,501.627594 535.906616,498.644989   C537.322632,495.071747 534.933655,493.482788 532.135376,492.275696   C530.809753,491.703857 529.009155,491.640167 528.923401,489.671783   C528.843445,487.835815 530.507812,487.828156 532.019043,487.196777  z"/>
<path fill="#ffffff" opacity="1.000000" stroke="none" d=" M351.515594,504.837830   C347.686249,506.084381 347.851837,503.553070 347.822571,501.402374   C347.745667,495.750092 347.552155,490.086395 347.818329,484.446747   C348.016998,480.237122 346.316254,478.643951 342.301941,479.053711   C341.644623,479.120789 340.971832,479.069794 340.308258,479.034698   C338.847137,478.957489 337.586853,478.460754 337.562927,476.786438   C337.538147,475.053009 338.793701,474.634277 340.288147,474.643250   C346.606171,474.681122 352.924377,474.694397 359.242218,474.752441   C360.603973,474.764984 362.105865,474.920898 362.162476,476.710999   C362.229156,478.819489 360.442902,479.180969 359.014465,478.976410   C352.718536,478.074799 352.017273,481.544769 352.156555,486.643463   C352.319214,492.596100 352.801849,498.596405 351.515594,504.837830  z"/>
</svg>